<svg xmlns="http://www.w3.org/2000/svg" version="1.1" xmlns:xlink="http://www.w3.org/1999/xlink" width="512" height="512" x="0" y="0" viewBox="0 0 133 133" style="enable-background:new 0 0 512 512" xml:space="preserve" class=""><g><path fill="#47bcff" d="m16.779 3.052 74.857 43.207 28.819 16.649c2.704 1.627 2.726 5.514.042 7.162l-.127.085-103.528 59.771-.085.042a4.176 4.176 0 0 1-3.232.359c-1.69-.507-3.022-2.049-3.022-4.056V6.728c0-2.007 1.331-3.549 3.022-4.056 1.035-.297 2.197-.233 3.254.38z" opacity="1" data-original="#47bcff" class=""></path><path fill="#0bdf74" d="m16.779 3.052 74.857 43.207L72.832 66.5 13.525 2.671c1.035-.296 2.197-.232 3.254.381z" opacity="1" data-original="#0bdf74" class=""></path><path fill="#fdba21" d="m91.636 46.259 28.819 16.649c2.704 1.627 2.726 5.514.042 7.162l-.127.085-28.734 16.564L72.832 66.5z" opacity="1" data-original="#fdba21"></path><path fill="#fb434c" d="m72.832 66.5 18.804 20.22-74.794 43.207-.085.042a4.176 4.176 0 0 1-3.232.359z" opacity="1" data-original="#fb434c"></path></g></svg>