<svg xmlns="http://www.w3.org/2000/svg" version="1.1" xmlns:xlink="http://www.w3.org/1999/xlink" width="512" height="512" x="0" y="0" viewBox="0 0 512 512" style="enable-background:new 0 0 512 512" xml:space="preserve" class=""><g><linearGradient id="a" x1="256" x2="256" y1=".032" y2="511.968" gradientUnits="userSpaceOnUse"><stop offset="0" stop-color="#00bffc"></stop><stop offset="1" stop-color="#0073f6"></stop></linearGradient><path fill="url(#a)" d="M408.525.032H103.411C46.266.032 0 46.298 0 103.443v305.178c0 57.081 46.266 103.347 103.411 103.347h305.178C465.67 511.968 512 465.702 512 408.557V103.443C511.936 46.298 465.67.032 408.525.032z" opacity="1" data-original="url(#a)" class=""></path><g fill="#fff"><path d="m253.792 117.649 10.367-17.918c6.399-11.199 20.669-14.974 31.868-8.575s14.974 20.669 8.575 31.868L204.71 295.931h72.247c23.421 0 36.539 27.517 26.365 46.586H91.509c-12.926 0-23.293-10.367-23.293-23.293s10.367-23.293 23.293-23.293h59.385l76.023-131.76-23.741-41.211c-6.399-11.199-2.624-25.341 8.575-31.868 11.199-6.399 25.341-2.624 31.868 8.575zM163.948 366.514l-22.397 38.843c-6.399 11.199-20.669 14.974-31.868 8.575s-14.974-20.669-8.575-31.868l16.638-28.796c18.813-5.823 34.107-1.344 46.202 13.246z" fill="#ffffff" opacity="1" data-original="#ffffff"></path><path d="M356.819 296.059h60.6c12.926 0 23.293 10.367 23.293 23.293s-10.367 23.293-23.293 23.293h-33.66l22.717 39.419c6.399 11.199 2.624 25.341-8.575 31.868-11.199 6.399-25.341 2.624-31.868-8.575-38.267-66.36-67-116.017-86.069-149.101-19.518-33.66-5.567-67.448 8.191-78.902 15.295 26.237 38.14 65.848 68.664 118.705z" fill="#ffffff" opacity="1" data-original="#ffffff"></path></g></g></svg>